<?xml version="1.0" encoding="UTF-8" standalone="no"?>
<svg
   width="300"
   height="179.01511"
   viewBox="0 0 300 179.01511"
   version="1.1"
   xml:space="preserve"
   style="clip-rule:evenodd;fill-rule:evenodd;stroke-linecap:round;stroke-linejoin:round;stroke-miterlimit:1.5"
   id="svg31"
   sodipodi:docname="logo.svg"
   inkscape:version="1.2.2 (732a01da63, 2022-12-09)"
   inkscape:export-filename="logo.svg"
   inkscape:export-xdpi="96"
   inkscape:export-ydpi="96"
   xmlns:inkscape="http://www.inkscape.org/namespaces/inkscape"
   xmlns:sodipodi="http://sodipodi.sourceforge.net/DTD/sodipodi-0.dtd"
   xmlns="http://www.w3.org/2000/svg"
   xmlns:svg="http://www.w3.org/2000/svg"><defs
     id="defs35" /><sodipodi:namedview
     id="namedview33"
     pagecolor="#ffffff"
     bordercolor="#000000"
     borderopacity="0.25"
     inkscape:showpageshadow="2"
     inkscape:pageopacity="0.0"
     inkscape:pagecheckerboard="0"
     inkscape:deskcolor="#d1d1d1"
     showgrid="false"
     inkscape:zoom="2.7291472"
     inkscape:cx="147.66518"
     inkscape:cy="105.16106"
     inkscape:window-width="1446"
     inkscape:window-height="931"
     inkscape:window-x="124"
     inkscape:window-y="369"
     inkscape:window-maximized="0"
     inkscape:current-layer="svg31" /><g
     id="g27"
     transform="matrix(0.18293331,0,0,0.18293331,-45.128972,-105.86326)"><path
       d="m 1361.15,929.978 c 19.446,-25.961 95.193,-264.14 158.954,-317.918 0,0 -169.62,-75.063 -208.367,0 -11.168,21.635 -42.598,42.224 -43.727,69.731 -1.047,25.393 73.28,191.562 93.14,248.187 z"
       style="fill:#023600;fill-rule:nonzero"
       id="path11" /><path
       d="m 1361.23,926.928 c -5.036,24.469 238.559,594.249 255.283,629.738 h 169.858 c 33.861,0 66.437,-0.203 86.544,-35.626 38.829,-68.408 -14.263,-183.331 -41.767,-243.629 -18.28,-40.069 -251.123,-634.824 -311.041,-664.405 -29.023,-14.327 -153.235,286.493 -158.877,313.922 z"
       style="fill:#77bc4a;fill-rule:nonzero"
       id="path13" /><path
       d="m 1221.71,784.73 c -34.784,93.79 -154.87,360.009 -155.04,405.011 -0.097,25.5 71.602,202.65 95.888,259.412 13.822,-27.068 169.282,-380.318 156.214,-415.575 -46.571,-125.657 -46.614,-126.283 -97.062,-248.848 z"
       style="fill:#023600;fill-rule:nonzero"
       id="path15" /><path
       d="m 519.322,1556.67 c 24.78,-96.116 338.813,-893.046 370.731,-977.199 l -175.789,-0.768 c -31.902,0 -79.558,3.634 -107.305,23.25 -65.616,46.382 -89.748,139.13 -119.135,213.252 -46.957,118.436 -165.208,431.284 -181.168,465.777 -28.708,62.034 -87.61,174.661 -44.947,243.038 22.15,35.499 52.792,32.65 87.755,32.65 h 169.858 m 87.224,0 h 211.175 c 33.14,0 71.666,5.886 99.504,-18.912 18.18,-16.191 222.881,-537.441 286.808,-702.239 35.927,-92.609 70.363,-224.204 170.092,-256.048 -120.874,0 -123.62,0.058 -392.489,2.122 -21.737,0.166 -369.466,955.134 -375.09,975.077 z"
       style="fill:#065d00;fill-rule:nonzero"
       id="path17" /><path
       d="m 1318.77,1034.54 c -29.45,83.974 -146.961,345.621 -155.326,390.282 -6.34,33.848 22.398,91.387 45.999,113.113 26.383,24.291 63.077,18.73 94.896,18.73 h 215.765 C 1476.696,1437.248 1345.02,1094.802 1318.77,1034.54 Z"
       style="fill:#77bc4a;fill-rule:nonzero"
       id="path19" /><rect
       x="456.86801"
       y="1504.11"
       width="205.54601"
       height="52.557999"
       style="fill:#065d00"
       id="rect21" /><path
       d="m 1084.01,1137.18 -17.338,52.558"
       style="fill:none"
       id="path23" /><rect
       x="1451.54"
       y="1504.11"
       width="205.54601"
       height="52.557999"
       style="fill:#77bc4a"
       id="rect25" /></g></svg>
